<?xml version="1.0" encoding="UTF-8"?>
<!DOCTYPE svg PUBLIC "-//W3C//DTD SVG 1.1//EN" "http://www.w3.org/Graphics/SVG/1.1/DTD/svg11.dtd">
<!-- Creator: CorelDRAW 2021 (64-Bit) -->
<svg xmlns="http://www.w3.org/2000/svg" xml:space="preserve" width="335px" height="140px" version="1.1" style="shape-rendering:geometricPrecision; text-rendering:geometricPrecision; image-rendering:optimizeQuality; fill-rule:evenodd; clip-rule:evenodd"
viewBox="0 0 335 140"
 xmlns:xlink="http://www.w3.org/1999/xlink"
 xmlns:xodm="http://www.corel.com/coreldraw/odm/2003">
 <defs>
  <style type="text/css">
   <![CDATA[
    .fil0 {fill:black}
   ]]>
  </style>
 </defs>
 <g id="Layer_x0020_1">
  <metadata id="CorelCorpID_0Corel-Layer"/>
  <path class="fil0" d="M137.88 58.42c-2.06,3.31 -2.06,4.22 -2.85,8.1 -0.97,4.8 -1.28,8.6 -0.45,13.39l0.99 5.29c0.24,1.03 0.5,1.89 0.76,2.91 0.45,1.78 1.94,5.69 2.72,7.22 2.09,4.05 2.11,3.6 4.49,6.81 3.63,4.88 6.67,7.39 13.16,7.16 1.11,-0.04 2.41,-0.24 3.39,-0.85 1.35,-0.85 2.58,-2.28 3.48,-3.72 0.35,-0.56 0.02,-1.05 -0.21,-1.54l-3.16 -5.69c-0.26,-0.52 -0.52,-0.96 -0.79,-1.49 -1.25,-2.46 -0.89,-4.23 -6.09,-2.26 -5.05,1.92 -4.62,1.07 -6.25,-1.8 -1.56,-2.75 -2.72,-5.65 -3.44,-8.72 -0.73,-3.14 -0.99,-6.1 -0.83,-9.33 0.18,-3.78 -0.34,-4.05 4.64,-4.58 5.81,-0.62 4.47,-1.87 4.63,-5.02l0.38 -7.86c-0.01,-0.21 -0.05,-0.75 -0.08,-0.9 -0.17,-0.66 -0.85,-0.95 -1.5,-1.26 -2.7,-1.27 -4.46,-1.62 -7.04,-0.43 -2.05,0.94 -4.64,2.45 -5.95,4.57z"/>
 </g>
</svg>
