<?xml version="1.0" encoding="UTF-8"?>
<!DOCTYPE svg PUBLIC "-//W3C//DTD SVG 1.1//EN" "http://www.w3.org/Graphics/SVG/1.1/DTD/svg11.dtd">
<!-- Creator: CorelDRAW 2021 (64-Bit) -->
<svg xmlns="http://www.w3.org/2000/svg" xml:space="preserve" width="335px" height="140px" version="1.1" style="shape-rendering:geometricPrecision; text-rendering:geometricPrecision; image-rendering:optimizeQuality; fill-rule:evenodd; clip-rule:evenodd"
viewBox="0 0 335 140"
 xmlns:xlink="http://www.w3.org/1999/xlink"
 xmlns:xodm="http://www.corel.com/coreldraw/odm/2003">
 <defs>
  <style type="text/css">
   <![CDATA[
    .fil0 {fill:black}
    .fil1 {fill:white}
   ]]>
  </style>
 </defs>
 <g id="Layer_x0020_1">
  <metadata id="CorelCorpID_0Corel-Layer"/>
  <g id="_1572186460064">
   <path class="fil0" d="M191.51 80.29c2.61,-0.21 4.97,0.26 7.09,1.23 1,0.45 1.86,1.13 1.6,2.61 -0.08,0.51 -0.55,1.17 -0.77,1.4 -1.23,1.24 -3.29,-0.22 -4.85,-0.53 -3.54,-0.7 -7.02,0.49 -9.05,3.26 -2.5,3.42 -1.98,10.17 1.1,12.67 2.56,2.08 6.89,2.77 9.8,1.36 1.07,-0.51 2.3,-0.69 3.09,0.11 0.63,0.63 1.09,2.02 0.39,3.05 -0.41,0.61 -1.78,1.12 -2.76,1.44 -6.59,2.08 -14.26,-0.61 -16.97,-6.84 -1.87,-4.31 -1.55,-9.87 0.76,-13.57 1.92,-3.07 5.42,-5.78 10.57,-6.19zm-17.58 -11.55c-3.8,0.24 -6.58,2.48 -7.89,4.67 -2.07,3.47 -1.55,6.61 -1.55,11.05l0 18.89c0,2.04 -0.1,4.33 0.02,6.34 0.23,3.85 2.47,6.4 4.66,7.85 3.11,2.07 6.94,1.57 11.05,1.57l18.89 0c3.78,0 8.04,0.55 11.07,-1.56 0.81,-0.56 1.9,-1.37 2.47,-2.18 2.85,-4.06 2.22,-6.45 2.22,-12.02l0 -18.89c0,-5.68 0.84,-10.55 -4.69,-14.19 -3.07,-2.03 -6.97,-1.55 -11.07,-1.55l-18.89 0c-2.01,0 -4.32,-0.1 -6.29,0.02z"/>
   <path class="fil0" d="M160.9 50.78c-0.44,0.22 -1.84,3.96 -2.04,4.44 -1.1,2.64 -3.33,1.81 -3.85,0.91 -0.81,-1.39 0.53,-3.59 1.06,-4.88l7.52 -18.07c0.64,-1.56 1.05,-3.4 3.03,-3.33 2.01,0.07 2.29,1.89 2.98,3.49 0.65,1.51 1.27,2.99 1.89,4.49l5.71 13.61c0.55,1.35 1.82,3.3 0.7,4.69 -1.35,1.66 -3.11,0.73 -3.84,-0.9 -0.58,-1.29 -1.46,-3.16 -1.88,-4.45l-11.28 0zm-17.92 15.23c4.42,0.27 16.2,-0.42 19.49,0.37 1.41,0.34 2.34,0.77 3.52,1.45 0.37,0.21 0.74,0.54 1.09,0.65 3.28,-2.49 5.89,-2.46 10.66,-2.46 3.11,0 10.73,0.15 13.27,-0.02 1.31,-3.2 1.18,-3.86 1.18,-7.66l0 -26.87c0,-4.89 -2.64,-8.98 -7.54,-10.25 -2.17,-0.57 -6.2,-0.33 -8.64,-0.33l-17.81 0c-4.33,0 -8.37,-0.63 -11.78,1.61 -2.95,1.94 -4.61,4.96 -4.61,8.86l0 26.88c0,3.64 -0.16,4.69 1.17,7.77z"/>
   <path class="fil0" d="M138.92 105.76c-0.14,2.71 -2.5,2.83 -3.54,2.17 -1.47,-0.91 -1.06,-3.17 -1.06,-5.23l0 -18.89c0,-1.24 -0.4,-4.13 2.18,-4.23 2.7,-0.11 2.41,2.74 2.41,3.91 0,2.12 -0.02,4.24 0,6.35 0.83,-0.53 1.67,-2.01 4.44,-2.64 3.89,-0.88 7.48,1.17 9.48,4.48 0.96,1.59 1.46,3.56 1.49,5.73 0.12,8.59 -7.34,13.03 -13.29,9.84 -1.28,-0.69 -1.77,-1.31 -2.11,-1.49zm26.01 11.66c-0.18,-0.07 -1.09,-1.41 -1.35,-1.85 -1.68,-2.8 -1.79,-4.97 -1.79,-8.23l0 -26.76c0,-4.01 0.2,-6.01 2.4,-9.23 0.27,-0.4 0.5,-0.63 0.74,-1.06 -0.93,-0.34 -1.29,-0.88 -3.22,-1.31 -1.98,-0.45 -10.95,-0.26 -13.33,-0.26 -6.05,0 -12.09,0.01 -18.14,0 -3.2,0 -4.98,0.47 -7.05,1.99 -4.82,3.54 -4.06,8.51 -4.06,14.08l0 18.24c0,5.49 -0.76,10.65 4.05,14.08 2.21,1.57 3.76,2 7.06,2l27.21 0c1.49,0 2.85,0.06 4.28,-0.26 1.01,-0.23 2.61,-0.84 3.2,-1.43z"/>
   <path class="fil1" d="M173.93 68.74c1.97,-0.12 4.28,-0.02 6.29,-0.02l18.89 0c4.1,0 8,-0.48 11.07,1.55 5.53,3.64 4.69,8.51 4.69,14.19l0 18.89c0,5.57 0.63,7.96 -2.22,12.02 -0.57,0.81 -1.66,1.62 -2.47,2.18 -3.03,2.11 -7.29,1.56 -11.07,1.56l-18.89 0c-4.11,0 -7.94,0.5 -11.05,-1.57 -2.19,-1.45 -4.43,-4 -4.66,-7.85 -0.12,-2.01 -0.02,-4.3 -0.02,-6.34l0 -18.89c0,-4.44 -0.52,-7.58 1.55,-11.05 1.31,-2.19 4.09,-4.43 7.89,-4.67zm-9 48.68c-0.59,0.59 -2.19,1.2 -3.2,1.43 -1.43,0.32 -2.79,0.26 -4.28,0.26l-27.21 0c-3.3,0 -4.85,-0.43 -7.06,-2 -4.81,-3.43 -4.05,-8.59 -4.05,-14.08l0 -18.24c0,-5.57 -0.76,-10.54 4.06,-14.08 2.07,-1.52 3.85,-1.99 7.05,-1.99 6.05,0.01 12.09,0 18.14,0 2.38,0 11.35,-0.19 13.33,0.26 1.93,0.43 2.29,0.97 3.22,1.31 -0.24,0.43 -0.47,0.66 -0.74,1.06 -2.2,3.22 -2.4,5.22 -2.4,9.23l0 26.76c0,3.26 0.11,5.43 1.79,8.23 0.26,0.44 1.17,1.78 1.35,1.85zm-21.95 -51.41c-1.33,-3.08 -1.17,-4.13 -1.17,-7.77l0 -26.88c0,-3.9 1.66,-6.92 4.61,-8.86 3.41,-2.24 7.45,-1.61 11.78,-1.61l17.81 0c2.44,0 6.47,-0.24 8.64,0.33 4.9,1.27 7.54,5.36 7.54,10.25l0 26.87c0,3.8 0.13,4.46 -1.18,7.66 -2.54,0.17 -10.16,0.02 -13.27,0.02 -4.77,0 -7.38,-0.03 -10.66,2.46 -0.35,-0.11 -0.72,-0.44 -1.09,-0.65 -1.18,-0.68 -2.11,-1.11 -3.52,-1.45 -3.29,-0.79 -15.07,-0.1 -19.49,-0.37zm-3.88 -35.62l0 31.41c0,1.91 0.53,2.78 0.86,4.21 -2.19,0 -11.36,-0.15 -13.09,0.18 -2.66,0.51 -4.85,1.69 -6.71,3.55 -0.06,0.06 -0.1,0.11 -0.15,0.17 -0.11,0.12 -0.14,0.16 -0.26,0.28 -0.38,0.38 -0.73,0.78 -1.04,1.23 -1.06,1.57 -2.28,4.1 -2.28,6.67l0 31.63c0,2.41 1.37,5.89 2.99,7.58 0.3,0.31 0.41,0.52 0.7,0.82 0.3,0.29 0.5,0.39 0.81,0.69 0.27,0.26 0.53,0.45 0.85,0.67 0.7,0.48 1.13,0.71 1.92,1.1 1.21,0.62 3.04,1.23 4.82,1.23l31.73 0c2.35,0 4.89,-1.17 6.7,-2.38 0.34,0.1 1.03,0.62 1.44,0.83 0.53,0.29 0.96,0.49 1.55,0.72 0.95,0.37 2.54,0.83 3.81,0.83l31.73 0c1.78,0 3.61,-0.61 4.82,-1.23 0.79,-0.39 1.22,-0.62 1.92,-1.1 1.28,-0.89 1.48,-1.26 2.36,-2.18 1.62,-1.69 2.99,-5.17 2.99,-7.58l0 -31.63c0,-3.2 -1.72,-6.34 -3.73,-8.35 -1.04,-1.04 -1.98,-1.73 -3.32,-2.4 -2.74,-1.38 -4.44,-1.33 -7.52,-1.33 -2.99,0 -5.97,0 -8.96,0 0.33,-1.4 0.86,-2.29 0.86,-4.21l0 -31.41c0,-2.42 -1.05,-4.98 -2.28,-6.78l-2.17 -2.37c-0.81,-0.76 -1.74,-1.28 -2.74,-1.79 -1.25,-0.63 -3.09,-1.26 -4.9,-1.26l-31.62 0c-2.39,0 -4.98,1.11 -6.74,2.33 -0.27,0.19 -0.61,0.46 -0.84,0.67l-1.14 1.13c-0.14,0.16 -0.24,0.22 -0.38,0.38 -1.66,1.87 -2.99,5.07 -2.99,7.69z"/>
   <path class="fil1" d="M149.84 98.82c-1.31,8.21 -12.34,6.33 -11.03,-2.46 0.47,-3.08 2.99,-5.77 6.68,-5.01 2.97,0.6 4.94,3.78 4.35,7.47zm-10.92 6.94c0.34,0.18 0.83,0.8 2.11,1.49 5.95,3.19 13.41,-1.25 13.29,-9.84 -0.03,-2.17 -0.53,-4.14 -1.49,-5.73 -2,-3.31 -5.59,-5.36 -9.48,-4.48 -2.77,0.63 -3.61,2.11 -4.44,2.64 -0.02,-2.11 0,-4.23 0,-6.35 0,-1.17 0.29,-4.02 -2.41,-3.91 -2.58,0.1 -2.18,2.99 -2.18,4.23l0 18.89c0,2.06 -0.41,4.32 1.06,5.23 1.04,0.66 3.4,0.54 3.54,-2.17z"/>
   <path class="fil1" d="M166.41 37.55c0.26,0.3 3.53,7.95 3.82,8.83l-7.61 -0.03 3.79 -8.8zm-5.51 13.23l11.28 0c0.42,1.29 1.3,3.16 1.88,4.45 0.73,1.63 2.49,2.56 3.84,0.9 1.12,-1.39 -0.15,-3.34 -0.7,-4.69l-5.71 -13.61c-0.62,-1.5 -1.24,-2.98 -1.89,-4.49 -0.69,-1.6 -0.97,-3.42 -2.98,-3.49 -1.98,-0.07 -2.39,1.77 -3.03,3.33l-7.52 18.07c-0.53,1.29 -1.87,3.49 -1.06,4.88 0.52,0.9 2.75,1.73 3.85,-0.91 0.2,-0.48 1.6,-4.22 2.04,-4.44z"/>
   <path class="fil1" d="M191.51 80.29c-5.15,0.41 -8.65,3.12 -10.57,6.19 -2.31,3.7 -2.63,9.26 -0.76,13.57 2.71,6.23 10.38,8.92 16.97,6.84 0.98,-0.32 2.35,-0.83 2.76,-1.44 0.7,-1.03 0.24,-2.42 -0.39,-3.05 -0.79,-0.8 -2.02,-0.62 -3.09,-0.11 -2.91,1.41 -7.24,0.72 -9.8,-1.36 -3.08,-2.5 -3.6,-9.25 -1.1,-12.67 2.03,-2.77 5.51,-3.96 9.05,-3.26 1.56,0.31 3.62,1.77 4.85,0.53 0.22,-0.23 0.69,-0.89 0.77,-1.4 0.26,-1.48 -0.6,-2.16 -1.6,-2.61 -2.12,-0.97 -4.48,-1.44 -7.09,-1.23z"/>
   <path class="fil0" d="M149.84 98.82c0.59,-3.69 -1.38,-6.87 -4.35,-7.47 -3.69,-0.76 -6.21,1.93 -6.68,5.01 -1.31,8.79 9.72,10.67 11.03,2.46z"/>
   <path class="fil0" d="M162.62 46.35l7.61 0.03c-0.29,-0.88 -3.56,-8.53 -3.82,-8.83l-3.79 8.8z"/>
  </g>
 </g>
</svg>
