<?xml version="1.0" encoding="UTF-8"?>
<!DOCTYPE svg PUBLIC "-//W3C//DTD SVG 1.1//EN" "http://www.w3.org/Graphics/SVG/1.1/DTD/svg11.dtd">
<!-- Creator: CorelDRAW 2021 (64-Bit) -->
<svg xmlns="http://www.w3.org/2000/svg" xml:space="preserve" width="5000px" height="10000px" version="1.1" style="shape-rendering:geometricPrecision; text-rendering:geometricPrecision; image-rendering:optimizeQuality; fill-rule:evenodd; clip-rule:evenodd"
viewBox="0 0 5000 10000"
 xmlns:xlink="http://www.w3.org/1999/xlink"
 xmlns:xodm="http://www.corel.com/coreldraw/odm/2003">
 <defs>
  <style type="text/css">
   <![CDATA[
    .fil0 {fill:black}
    .fil3 {fill:#FC5C7C}
    .fil1 {fill:#FECC69}
    .fil2 {fill:#FEE5B3}
    .fil4 {fill:#FEFEFE}
   ]]>
  </style>
 </defs>
 <g id="Layer_x0020_1">
  <metadata id="CorelCorpID_0Corel-Layer"/>
  <path class="fil0" d="M2689.01 4780.1c0,-28.63 31.06,-37.09 45.61,-16.58 7.52,10.6 4.3,62.64 4.3,79.68l-5.16 0.14 -44.73 -0.02 -0.02 -63.22zm147.19 -156.55l0 211.71 0 23.34c-1.05,7.68 -5.07,10.96 -18.35,10.84 -17.51,-0.17 -35.06,-0.04 -52.57,-0.04l-526.62 0c-63.33,0 -73.53,3.78 -74.86,-11.7l0 -19.82 0 -212.42c1.2,-18.14 17.22,-13.46 36.77,-13.46 18.62,0 38.81,-4.84 39.45,13.13 -2.15,18.06 -23.52,13.3 -49.95,13.3l0 204.88 44.75 0c0,-18.47 -2.12,-67.35 2.38,-81.7 14.83,-47.3 82.56,-47.58 97.56,-0.14 4.65,14.71 2.49,63.24 2.49,81.83l44.75 0.01 0 -162.15c-7.6,0 -14.9,1.12 -19.61,-3.8 -14.24,-14.86 13.87,-27.89 20.73,-38.86 -10.96,-0.19 -21.93,0.04 -32.88,-0.02 -12.4,-0.07 -16.77,-1.79 -18.21,-13.35 -0.24,-13.78 11.13,-13.17 24.82,-13.13 6.64,0.01 50.17,1.06 54.5,-0.67 5.08,-2.02 41.96,-39.33 48.7,-44.53 7.08,-5.48 11.99,-12.71 18.74,-18.03 10.7,-8.43 8.08,-5.63 8.08,-28.7 -0.01,-82.95 -7.29,-73.54 38.08,-73.54 75.44,0 65.67,-7.69 65.67,45.96 0,42.02 3.08,32.83 -77.49,32.83 0,13.02 -2.44,15.72 5.79,21.8l40.56 38.23c32.35,27.03 17.55,26.65 52.15,26.65l183.86 0c20.93,0 39.23,-4.14 40.71,11.55zm-361.16 156.55c0,-37.02 49.92,-36.99 49.92,0l0 63.22 -49.91 0 -0.01 -63.22zm-164.05 0l0 63.22 -49.92 -0.02c0,-19.46 -3.46,-66.33 4.05,-80.1 10.11,-18.56 45.87,-14.76 45.87,16.9zm137.8 63.22l-40.54 -0.04 0 -161.87 183.68 -0.25 -0.18 161.94 -40.54 0.23c0,-18.49 2.12,-67.47 -2.38,-81.8 -15.08,-47.95 -83.22,-46.91 -97.58,-0.01 -4.69,15.31 -2.46,62.89 -2.46,81.8zm51.21 -277.08c6.22,4.03 15.42,14.41 23.93,21.82l23.82 22.17c3.32,2.93 44.95,41.29 46.51,44.66l-188.53 0.02 94.27 -88.67zm116.88 72.26l192.88 -0.07 0.18 204.88 -44.82 0 0.06 -63.21c0.02,-47.12 -45.55,-64.88 -76.36,-47.59 -12.61,7.08 -24.95,21.6 -25.96,42.29 -1.07,21.88 -0.11,46.26 -0.11,68.4l-44.72 0.11 -0.03 -162.15c9.2,0 16.93,1.11 21.34,-6.08 3.13,-5.1 2.39,-10.86 -0.88,-14.99 -4.89,-6.17 -17.54,-15.41 -21.58,-21.59zm-103.75 -165.72l45.97 -0.09 4.84 0.51 0.01 25.68 -4.85 0.37 -45.98 0 0.01 -26.47z"/>
  <path class="fil1" d="M2332.03 4625.13l-32.92 0c-1.96,16.53 -23.78,19.33 -26.17,0l-32.92 0c-2.15,18.06 -23.52,13.3 -49.95,13.3l0 204.88 44.75 0c0,-18.47 -2.12,-67.35 2.38,-81.7 14.83,-47.3 82.56,-47.58 97.56,-0.14 4.65,14.71 2.49,63.24 2.49,81.83l44.75 0.01 0 -162.15c-7.6,0 -14.9,1.12 -19.61,-3.8 -14.24,-14.86 13.87,-27.89 20.73,-38.86 -10.96,-0.19 -21.93,0.04 -32.88,-0.02 -12.4,-0.07 -16.77,-1.79 -18.21,-13.35z"/>
  <path class="fil1" d="M2616.88 4638.5c4.04,6.18 16.69,15.42 21.58,21.59 3.27,4.13 4.01,9.89 0.88,14.99 -4.41,7.19 -12.14,6.08 -21.34,6.08l0.03 162.15 44.72 -0.11c0,-22.14 -0.96,-46.52 0.11,-68.4 1.01,-20.69 13.35,-35.21 25.96,-42.29 30.81,-17.29 76.38,0.47 76.36,47.59l-0.06 63.21 44.82 0 -0.18 -204.88 -192.88 0.07z"/>
  <path class="fil2" d="M2448.79 4843.32c0,-18.91 -2.23,-66.49 2.46,-81.8 14.36,-46.9 82.5,-47.94 97.58,0.01 4.5,14.33 2.38,63.31 2.38,81.8l40.54 -0.23 0.18 -161.94 -183.68 0.25 0 161.87 40.54 0.04z"/>
  <path class="fil3" d="M2405.73 4654.91l188.53 -0.02c-1.56,-3.37 -43.19,-41.73 -46.51,-44.66l-23.82 -22.17c-8.51,-7.41 -17.71,-17.79 -23.93,-21.82l-94.27 88.67z"/>
  <path class="fil4" d="M2310.99 4780.1c0,-31.66 -35.76,-35.46 -45.87,-16.9 -7.51,13.77 -4.05,60.64 -4.05,80.1l49.92 0.02 0 -63.22z"/>
  <path class="fil4" d="M2689.03 4843.32l44.73 0.02 5.16 -0.14c0,-17.04 3.22,-69.08 -4.3,-79.68 -14.55,-20.51 -45.61,-12.05 -45.61,16.58l0.02 63.22z"/>
  <path class="fil4" d="M2475.05 4843.32l49.91 0 0 -63.22c0,-36.99 -49.92,-37.02 -49.92,0l0.01 63.22z"/>
  <polygon class="fil3" points="2513.12,4499.25 2559.1,4499.25 2563.95,4498.88 2563.94,4473.2 2559.1,4472.69 2513.13,4472.78 "/>
  <path class="fil0" d="M2272.94 4625.13c2.39,19.33 24.21,16.53 26.17,0 -0.65,-18.33 -26.48,-16.97 -26.17,0z"/>
 </g>
</svg>
