<?xml version="1.0" encoding="UTF-8"?>
<!DOCTYPE svg PUBLIC "-//W3C//DTD SVG 1.1//EN" "http://www.w3.org/Graphics/SVG/1.1/DTD/svg11.dtd">
<!-- Creator: CorelDRAW 2021 (64-Bit) -->
<svg xmlns="http://www.w3.org/2000/svg" xml:space="preserve" width="5000px" height="10000px" version="1.1" style="shape-rendering:geometricPrecision; text-rendering:geometricPrecision; image-rendering:optimizeQuality; fill-rule:evenodd; clip-rule:evenodd"
viewBox="0 0 5000 10000"
 xmlns:xlink="http://www.w3.org/1999/xlink"
 xmlns:xodm="http://www.corel.com/coreldraw/odm/2003">
 <defs>
  <style type="text/css">
   <![CDATA[
    .fil0 {fill:black}
   ]]>
  </style>
 </defs>
 <g id="Layer_x0020_1">
  <metadata id="CorelCorpID_0Corel-Layer"/>
  <g id="_1609746558544">
   <path class="fil0" d="M2459.36 5156.85l81.12 0 6.48 38.86 -94.08 0 5.64 -33.84c0.22,-1.33 0.72,-3.59 0.84,-5.02zm-165.02 -30.23l0 -8.95 411.16 0 0 9.87c0,5.57 -4.48,9.56 -10.18,9.56l-390.5 0c-6.39,0 -10.48,-4.12 -10.48,-10.48zm-19.75 -233.81l0 234.12c0,16.6 13.3,29.92 29.92,29.92l134.8 0 -6.48 38.86c-4.94,0 -9.87,0 -14.81,0 -5.93,0 -9.26,-0.31 -12.7,2.41 -2.67,2.11 -4.28,6.38 -3.01,10.52 1.1,3.55 4.77,6.81 8.31,6.81l178.59 0c4.69,0 8.95,-5 8.95,-9.56 0,-6.03 -4.7,-10.18 -10.8,-10.18l-20.35 0 -6.48 -38.86 120.91 0c10.91,0 20.52,1.4 29.99,-4.56 3.17,-2 6.72,-5.44 8.75,-8.52 6.02,-9.07 5.06,-15.21 5.06,-29.49l0 -206.97c0,-5.29 0.38,-12.16 -0.02,-17.26 -0.52,-6.73 -3.74,-13.52 -8.08,-17.83 -4.69,-4.65 -9.63,-7.99 -16.9,-9.01 -5.5,-0.76 -62.07,-0.32 -69.08,-0.32 0.76,3.25 1.56,5.3 2.45,9.59l1.87 10.16 59.54 -0.01c5.96,-0.04 10.48,3.79 10.48,9.57l0 205.73 -411.16 0 0 -204.81c0,-4.12 1.64,-7.03 4.18,-8.77 3.2,-2.2 6.18,-1.71 11.24,-1.71 16.96,0 35.73,-0.28 52.45,0.01 3.24,0.06 2.33,-0.47 2.85,-3.63 0.28,-1.73 0.64,-3.55 1.01,-5.46l2.6 -10.67c-20.66,0 -41.33,0 -62,0 -6.05,0 -8.89,0.33 -13.35,2.07 -11.16,4.37 -18.73,15.51 -18.73,27.85z"/>
   <path class="fil0" d="M2498.84 4804.29c16.76,0 27.34,2.75 41.82,8.77 4.86,2.01 11.15,5.92 15.49,8.87 1.22,0.82 2.17,1.6 3.36,2.49 3.15,2.35 8.6,7.23 11.28,10.01 3.2,3.33 7.03,8.33 9.66,11.94 0.9,1.25 1.54,2.28 2.3,3.55l4.51 7.83c0.73,1.48 1.26,2.84 1.95,4.22 5.47,11 8.64,27.62 8.64,40.1 0,19.67 -6.44,40.08 -16.84,55.03 -5.73,8.23 -11.14,14.1 -18.54,20.32 -0.73,0.62 -0.89,0.82 -1.68,1.41 -4.87,3.61 -13.13,9.38 -18.59,11.63 -7.67,3.17 -8.33,3.93 -17.65,6.41 -15.94,4.23 -33.34,3.9 -49.22,-0.05 -18.19,-4.52 -32.84,-13.8 -45.82,-26.66 -5.08,-5.04 -9.08,-10.95 -13.03,-16.89l-4.42 -7.91c-5.85,-12.3 -10.95,-30.62 -9.82,-44.25 0.15,-1.91 -0.08,-3.95 0.07,-5.81 0.13,-1.64 0.41,-3.89 0.6,-5.57 1.08,-9.92 4.07,-19.15 7.93,-28.16 1.22,-2.84 2.71,-5.36 4.1,-7.93 3.88,-7.17 8.69,-13.23 14.27,-19.04l7.71 -7.41c3.58,-3.33 11.65,-8.57 16.16,-10.97 13.23,-7.06 27.85,-11.93 45.76,-11.93zm-76.5 185.99c-5.22,0 -26.06,-0.62 -30.12,0.73 -7.31,2.42 -12.17,11.37 -8.62,19.82 1.67,3.98 6.77,8.76 12.21,8.76l208.21 0c7.05,0 13.57,-7.06 13.57,-14.5 0,-7.65 -5.85,-13.78 -12.41,-14.74 -2.19,-0.31 -23.27,-0.07 -27.38,-0.07 1.02,-1.52 2.46,-2.57 3.92,-3.79 0.7,-0.58 1.38,-1.31 2.02,-1.98 0.81,-0.84 1.01,-1.33 1.84,-2.18 4.07,-4.1 4.04,-4.45 7.43,-8.61 15.27,-18.7 24.58,-45.91 24.58,-71.96 0,-9.24 -1.27,-18.55 -3.02,-25.98 -0.95,-4.02 -1.96,-7.61 -3.19,-11.31 -3.24,-9.76 -7.75,-18.32 -13.16,-26.93 -0.56,-0.89 -0.96,-1.29 -1.55,-2.16 -3.24,-4.79 -8.93,-11.74 -13.24,-16.05 -0.64,-0.64 -1.06,-1.06 -1.69,-1.7l-3.86 -3.55c-0.75,-0.73 -1.21,-0.98 -2.01,-1.69 -1.25,-1.12 -2.66,-2.17 -3.93,-3.17l-8.46 -6.04c-1.66,-1.01 -2.91,-1.87 -4.6,-2.8 -11.09,-6.04 -17.59,-9.13 -31.23,-12.56 -21.18,-5.33 -47.38,-4.15 -67.55,3.64 -15.04,5.82 -26.6,12.53 -38.76,23.24l-11.07 11.44c-0.93,1.15 -1.68,2.06 -2.64,3.23 -3.38,4.15 -6.32,8.66 -9.14,13.38 -7.56,12.64 -12.35,26.83 -14.79,41.64 -0.99,6 -1.65,14.94 -1.16,20.78 0.15,1.81 -0.15,3.66 0.1,5.45 0.87,6.41 0.63,7.48 2.15,15.12 0.6,3.05 1.38,6.08 2.26,9.16 3.23,11.38 8.51,22.33 14.32,31.02 2.35,3.51 5.46,8.05 8.25,11.18l9.71 10.33c0.7,0.7 2.65,2.36 3.01,2.85z"/>
   <path class="fil0" d="M2490.2 4844.39c-6.55,0.54 -14.73,4.91 -19.56,9.74 -4.43,4.44 -7.33,9.09 -8.95,15.42 -3.63,14.26 3.02,29.08 16.17,35.6 2.57,1.28 4.6,2.17 7.5,3.3 7.18,2.82 16.99,4.5 24.57,7.81 6.23,2.72 9.57,4.83 9.57,12.02 0,4.34 -3.08,8.58 -5.87,10.18 -6.11,3.5 -22.78,4.96 -28.5,-2.63 -2.03,-2.69 -3.41,-6.2 -4.11,-9.47 -0.31,-1.42 -0.27,-1.48 -0.35,-3.04 -0.09,-1.64 -0.16,-1.54 -1.85,-1.55l-18.23 -0.27c0,4.49 1.16,10.26 2.58,14.38 4.19,12.24 13.85,20.79 27.03,23.87l0 20.66 19.74 0 0 -20.35c4.23,-0.99 7.75,-2.03 11.31,-3.81 3.63,-1.81 6.35,-3.74 9.17,-6.56 0.05,-0.04 0.11,-0.11 0.16,-0.15 2.49,-2.61 4.28,-4.88 5.76,-8.43 4.09,-9.81 3.74,-17.29 -0.4,-26.8 -1.9,-4.38 -6.27,-9.3 -10.27,-11.94 -0.91,-0.6 -1.58,-1.03 -2.64,-1.67 -9.47,-5.72 -22.49,-7.5 -32.79,-11.63 -3.66,-1.47 -9.06,-3.8 -9.57,-8.32 -0.3,-2.69 -0.26,-5.46 0.29,-7.97 1.64,-7.41 12.12,-9.58 19.11,-9.58 4.83,0 15.47,4.26 18.02,10.98 0.86,2.29 1.41,5.44 1.41,8.46l19.74 0c0,-8.32 -3.38,-18.99 -8.71,-24.61 -3.54,-3.74 -4.19,-4.69 -8.86,-7.79 -1.93,-1.27 -3.14,-1.84 -5.45,-2.88 -1.53,-0.68 -4.5,-1.9 -6.28,-2.05l0 -21.59 -19.74 0 0 20.67z"/>
  </g>
 </g>
</svg>
