<?xml version="1.0" encoding="UTF-8"?>
<!DOCTYPE svg PUBLIC "-//W3C//DTD SVG 1.1//EN" "http://www.w3.org/Graphics/SVG/1.1/DTD/svg11.dtd">
<!-- Creator: CorelDRAW 2021 (64-Bit) -->
<svg xmlns="http://www.w3.org/2000/svg" xml:space="preserve" width="5000px" height="10000px" version="1.1" style="shape-rendering:geometricPrecision; text-rendering:geometricPrecision; image-rendering:optimizeQuality; fill-rule:evenodd; clip-rule:evenodd"
viewBox="0 0 5000 10000"
 xmlns:xlink="http://www.w3.org/1999/xlink"
 xmlns:xodm="http://www.corel.com/coreldraw/odm/2003">
 <defs>
  <style type="text/css">
   <![CDATA[
    .fil0 {fill:black}
   ]]>
  </style>
 </defs>
 <g id="Layer_x0020_1">
  <metadata id="CorelCorpID_0Corel-Layer"/>
  <g id="_1572915931568">
   <path class="fil0" d="M2217.09 5653.71c48.99,-12.72 104.2,-34.52 150.07,-52.07 16.21,-6.21 140.84,-59 141.51,-58.99 0.28,0 125.86,52.85 141.68,58.99 49.61,19.27 97.88,36.17 149.8,52.25 -6.55,53.83 -71.09,197.21 -100.48,248.23 -33.34,57.88 -102.6,158.92 -190.93,159.04 -24.33,0.03 -49.45,-8.52 -66.78,-19.15 -36.73,-22.55 -65.68,-52.29 -90,-85.94 -12.45,-17.22 -22.93,-34.69 -34.38,-53.68 -31.07,-51.54 -60.07,-122.35 -80.34,-181.66 -5.1,-14.92 -18.89,-53.08 -20.15,-67.02zm1083.66 -47.36c-10.05,-10.94 -10.82,-35.74 -52.94,-68.2 -22.07,-17.01 -52.99,-31.2 -88.97,-33.01 -47.92,-2.4 -103.21,20.34 -129.33,52.79 -7.08,8.8 -20.17,25.52 -23.99,38.63 -13.66,-1.55 -67.69,-11.68 -76.08,-17.32 2.76,-23.57 11.62,-55.56 16.45,-80.98 5.4,-28.37 10.13,-56.85 14.41,-85.54 7.32,-49.18 10.4,-88.55 16.28,-133.63 1.44,-11.08 8.99,-14.32 24.61,-25.37l56.39 -41.67c30.5,-21.4 107.91,-87.79 136.52,-113.44 9.8,-8.79 16.36,-16.62 26.65,-23.44 17.2,10.13 95.65,108.3 104.08,120.01 53.28,74.08 150.95,217.71 110,320.14 -18.95,47.38 -70.99,80.79 -134.08,91.03zm-1145.92 -257.22l227.92 132.4c-30.98,13.03 -165.73,66.31 -192.01,69.33 -9.29,-18.2 -33.58,-172.43 -35.91,-201.73zm672.49 202.3c-39.43,-7.59 -150.62,-53.55 -192.86,-69.66 3.25,-3.77 1.32,-2.11 5.84,-4.95l222.13 -127.54c-5.17,67.5 -23.98,137.58 -35.11,202.15zm-1082.45 -420.2c6.11,-10.71 44.26,-48.68 49.32,-56.45 7.08,2.82 63.35,54.58 80.62,68.44 9.83,7.9 16.96,15.24 26.82,23.08l126.96 97.04c5.61,4.06 9.79,4.74 11.52,12.19l16.3 133.93c4.35,28.82 8.96,57.57 14.39,85.82 5.03,26.25 13.92,58.76 16.81,83.96 -19.9,11.12 -137.67,28.62 -168.87,32.03 -116.65,12.77 -340.22,14.68 -345.51,-142.03 -0.8,-23.76 4.39,-69.73 15.51,-86.62 57,2.94 90.72,-6.2 132.33,-41.12 43,-36.09 63.64,-108.83 42.7,-171.31 -5.67,-16.9 -12.91,-25.93 -18.9,-38.96zm395.82 -344.19c13.23,-6.85 31.27,-19.79 44.66,-29.2 27.91,-19.65 104.09,-65.52 133.67,-82.32 20.62,-11.71 176.79,-99.38 189.64,-99.2 13.28,0.19 168.44,87.45 189.6,99.37 48.73,27.45 89.21,53.38 135.05,83 13.8,8.92 29.72,21.26 43.19,28.57 11.16,135.99 11.85,288.05 0.15,423.97 -3.11,7.09 -107.16,70.87 -121.92,80.01 -63.69,39.42 -125.66,73.16 -192.47,107.48 -11.43,5.87 -22.14,11.18 -33.37,16.63 -18.1,8.77 -15.58,12.34 -33.71,3.43 -45.7,-22.48 -88.75,-45.69 -131.53,-68.48 -65.75,-35.02 -126.72,-74.09 -187.8,-114.13 -34.19,-22.42 -35.16,-17.7 -36.42,-38.95 -8.6,-144.86 -10.36,-264.6 1.26,-410.18zm-229.64 178.44c13.55,-11.95 24.44,-22.16 38.61,-33.38 6.87,-5.43 12.34,-11.19 19.39,-16.53 10.38,-7.85 52.06,-43.06 60.65,-46.22 -2.51,109.54 -2.79,151.69 0.02,261.77 -7.76,-2.88 -34.33,-25.05 -41.65,-31.21 -7.22,-6.07 -12.98,-10.65 -20.15,-15.89 -23.73,-17.36 -65.48,-57.84 -86.97,-74.97 -6.18,-4.93 -5.98,-3.55 -8.71,-10.72l38.81 -32.85zm1117.26 135.31c-13.43,9.78 -25.7,21.67 -39.56,30.48 -2.53,-5.28 -0.62,-25.2 -0.38,-32.03l-0.74 -225.71c0.05,-0.42 0.25,-1.16 0.3,-1.49 0.05,-0.32 0.34,-0.71 0.38,-1.44 0.05,-0.71 0.23,-0.96 0.44,-1.4 16.33,10.32 79.97,63.33 99.88,80.19 12.24,10.36 52.89,44.5 56.31,52.4 -13.02,9.18 -24.7,20.83 -38.03,33.57l-78.6 65.43zm-393.86 -582.1c42.04,-16.06 153.69,-62.17 192.89,-69.66 12.21,63.17 30.08,136.57 35.08,202.18 -16.84,-7.93 -38.87,-23.66 -55.63,-34 -30.12,-18.56 -126.01,-74.29 -158.4,-89.62 -2.72,-1.29 -5.5,-2.32 -8.09,-3.94 -4.53,-2.85 -2.59,-1.18 -5.85,-4.96zm-479.62 132.62c2.31,-29.61 26.53,-182.93 35.91,-201.69 25.67,2.8 161.56,56.43 192,69.31l-227.91 132.38zm-438.01 185.88c-61.78,-76.93 -170.53,-233.09 -138.05,-341.85 38.29,-128.21 254.86,-118.42 372.06,-102.08 27.19,3.79 118.83,17.84 136.77,27.97 -2.94,25.27 -11.88,57.72 -16.78,83.91 -5.3,28.32 -10.08,56.87 -14.38,85.78l-16.34 134c-2.3,9.54 -18.12,16.6 -25.49,22.23 -20.59,15.72 -37.13,27.87 -56.97,42.97 -35.43,26.97 -76.65,60.13 -109.79,90.18 -8.46,7.68 -45.68,42.16 -53.64,45.39l-77.39 -88.5zm1212.61 -415.96c11.17,-7.51 115.85,-25.08 137.24,-28.03 49.93,-6.87 101.51,-11.2 152.73,-9.07 322.39,13.44 238.16,237.22 114.73,408.45 -15.91,22.08 -96.58,122.77 -113.38,132.74l-163.23 -136.84c-9.51,-6.96 -18.81,-14.59 -28.31,-21.67 -63.18,-47.06 -49.23,-20.59 -57.23,-90.57 -6.45,-56.39 -15.43,-118.47 -26.1,-174.03 -4.79,-24.9 -13.86,-57.89 -16.45,-80.98zm-712.4 -76c14.3,-67.53 63.68,-179.65 96.89,-240.81 7.48,-13.78 33.52,-55.62 44.33,-67.68 26.12,-29.12 12.86,-22.92 54.44,-57.59 50.31,-41.94 105.04,-54.25 163.95,-19.82 19.56,11.43 50.95,37.19 60.74,51.9 -2.62,5.93 -8.26,13.27 -11.62,19.04 -45.42,78 -19.42,174.89 57.33,220.64 32.65,19.47 51.69,20.26 93.66,22.36 4.8,7.56 22.14,62.92 23.38,73.29 -52.42,16.34 -101.62,33.64 -151.23,52.82 -15.97,6.17 -139.69,58.56 -141.46,58.37l-141.72 -59.49 -148.69 -53.03zm657.72 -116.28c18.49,-13.27 41.06,-50.39 47.88,-83.83 21.25,-104.11 -61.26,-212.9 -193.79,-190.64l-18.8 -20.53c-6.57,-7.39 -11.51,-12.62 -18.88,-19.15 -12.6,-11.16 -26.1,-23.73 -41.81,-34.18 -118.23,-78.62 -226.23,-54.05 -325.46,35.77 -46.86,42.42 -97.91,123.97 -125.58,180.34 -25.6,52.17 -71.21,164.58 -83.05,221.08 -27.17,-4.27 -58.38,-13.02 -86.51,-18.6 -89.66,-17.77 -198.32,-27.3 -288.29,-16.26 -125.46,15.39 -215.38,67.38 -254.61,159.4 -48.04,112.68 6.81,240.19 54.63,325.11 33.14,58.85 68.65,103.46 107.86,152.16l71.99 81.58c-23.04,21.64 -44.21,49.93 -61.59,66.54 -37.36,-4.48 -65.71,-14.38 -112.4,7.1 -30.43,14 -55.18,36.02 -71.03,61 -17.83,28.11 -29.14,66.36 -24.17,107.03 3.48,28.49 20.25,70.42 41.57,88.08 -2.73,15.58 -11.31,37.13 -15.62,54.63 -14.45,58.72 -13.38,124.4 11.22,178.04 65.47,142.75 244.35,165.84 389.8,157.03 42.15,-2.56 82.78,-7.69 123.62,-14.58 38.44,-6.48 85.12,-18.92 113.53,-23.43 8.27,39.76 40.57,124.14 56.81,163.27 24.77,59.67 61.15,128.79 98.76,177.23 23.41,30.14 49.65,61.04 79.74,84.23 101.72,78.42 216.5,80.15 316.88,-1.39 45.56,-37.02 69.68,-67.94 102.75,-117.32 41.7,-62.27 80.79,-149.4 106.08,-223.88 8.27,-24.34 20.82,-57.25 25.67,-82.09l90.11 19.3c12.84,39.25 28,67.69 51.69,86.2 24.76,19.34 55.44,37.49 98.9,39.19 125.22,4.89 161.27,-112.58 161.29,-112.6 9.58,-5.12 45.76,-11.23 60.42,-15.93 56.6,-18.16 102.95,-46.21 137.72,-90.27 100.85,-127.8 19.04,-326.39 -68.02,-442.66 -10.74,-14.35 -21.7,-32.14 -31.89,-44.15 -19.69,-23.22 -48.84,-61.41 -69.04,-82.97 -6.64,-7.09 -12.27,-12 -19.15,-18.78 -6.4,-6.31 -10.78,-12.79 -17.17,-18.41 4.36,-10.61 15.65,-18.82 24.42,-27.85 22.48,-23.16 63.76,-71.58 83.55,-98.43 24.72,-33.54 52.48,-72.46 72.81,-109.27 46.68,-84.54 102.54,-212.12 53.28,-324.96 -40.16,-92 -129.3,-143.37 -255.87,-158.37 -93.92,-11.13 -195.38,-0.83 -288.09,16.84 -27.84,5.3 -58.2,14.14 -84.18,17.91l-27.98 -88.53z"/>
   <path class="fil0" d="M2245.53 5019.23c9.67,139.62 130.47,255.07 283.27,243.99 137.69,-9.98 253.46,-130.49 242.89,-281.54 -9.77,-139.55 -130.24,-255.37 -283,-244.46 -138.46,9.89 -253.66,130.41 -243.16,282.01z"/>
  </g>
 </g>
</svg>
